<svg preserveAspectRatio="none" overflow="visible" style="display: block;" width="44.9648" height="41.4056" viewBox="0 0 44.9648 41.4056" fill="none" xmlns="http://www.w3.org/2000/svg">
<g id="Group 78">
<g id="Union">
<mask id="path-1-outside-1_0_4" maskUnits="userSpaceOnUse" x="-0.875" y="-0.875" width="46" height="43" fill="black">
<rect fill="white" x="-0.875" y="-0.875" width="46" height="43"/>
<path d="M22.4824 1.125C34.2778 1.125 43.8398 9.44748 43.8398 19.7139C43.8398 25.0031 41.3014 29.7761 37.2275 33.1611C37.2251 33.1728 36.9614 34.458 36.9775 35.292C36.9842 35.6336 37.0421 36.0513 37.1074 36.4258C37.2081 37.003 36.9153 37.592 36.3682 37.8018C31.5542 39.6461 26.7728 40.2972 22.4824 40.2803C18.1921 40.2972 13.4106 39.6461 8.59668 37.8018C8.04959 37.592 7.75679 37.003 7.85742 36.4258C7.92271 36.0513 7.98066 35.6336 7.9873 35.292C8.00343 34.4582 7.7398 33.1733 7.7373 33.1611C3.66346 29.7761 1.125 25.0031 1.125 19.7139C1.12501 9.44748 10.687 1.125 22.4824 1.125Z"/>
</mask>
<path d="M22.4824 1.125C34.2778 1.125 43.8398 9.44748 43.8398 19.7139C43.8398 25.0031 41.3014 29.7761 37.2275 33.1611C37.2251 33.1728 36.9614 34.458 36.9775 35.292C36.9842 35.6336 37.0421 36.0513 37.1074 36.4258C37.2081 37.003 36.9153 37.592 36.3682 37.8018C31.5542 39.6461 26.7728 40.2972 22.4824 40.2803C18.1921 40.2972 13.4106 39.6461 8.59668 37.8018C8.04959 37.592 7.75679 37.003 7.85742 36.4258C7.92271 36.0513 7.98066 35.6336 7.9873 35.292C8.00343 34.4582 7.7398 33.1733 7.7373 33.1611C3.66346 29.7761 1.125 25.0031 1.125 19.7139C1.12501 9.44748 10.687 1.125 22.4824 1.125Z" fill="white"/>
<path d="M22.4824 1.125V0V0V1.125ZM43.8398 19.7139L44.9648 19.7139V19.7139L43.8398 19.7139ZM37.2275 33.1611L36.5086 32.2959L36.205 32.5481L36.1256 32.9346L37.2275 33.1611ZM36.9775 35.292L35.8527 35.3138L35.8528 35.3139L36.9775 35.292ZM37.1074 36.4258L35.9991 36.619L35.9991 36.619L37.1074 36.4258ZM36.3682 37.8018L36.7706 38.8523L36.7709 38.8522L36.3682 37.8018ZM22.4824 40.2803L22.4869 39.1552L22.478 39.1553L22.4824 40.2803ZM8.59668 37.8018L8.19396 38.8522L8.19419 38.8523L8.59668 37.8018ZM7.85742 36.4258L8.96571 36.619L8.96571 36.619L7.85742 36.4258ZM7.9873 35.292L9.11209 35.3139L9.11209 35.3137L7.9873 35.292ZM7.7373 33.1611L8.83928 32.9347L8.75984 32.5481L8.45628 32.2959L7.7373 33.1611ZM1.125 19.7139L0 19.7139V19.7139L1.125 19.7139ZM22.4824 1.125V2.25C33.8083 2.25 42.7148 10.2104 42.7148 19.7139L43.8398 19.7139L44.9648 19.7139C44.9648 8.68457 34.7474 7.15256e-07 22.4824 0V1.125ZM43.8398 19.7139L42.7148 19.7139C42.7148 24.6257 40.3601 29.0955 36.5086 32.2959L37.2275 33.1611L37.9465 34.0264C42.2426 30.4567 44.9648 25.3805 44.9648 19.7139L43.8398 19.7139ZM37.2275 33.1611L36.1256 32.9346C36.1222 32.9511 36.0514 33.2967 35.9831 33.7509C35.9172 34.1893 35.8427 34.7971 35.8527 35.3138L36.9775 35.292L38.1023 35.2702C38.0962 34.9529 38.1456 34.5011 38.2081 34.0855C38.2682 33.6857 38.3305 33.3829 38.3295 33.3876L37.2275 33.1611ZM36.9775 35.292L35.8528 35.3139C35.8611 35.7439 35.9313 36.2299 35.9991 36.619L37.1074 36.4258L38.2157 36.2326C38.153 35.8726 38.1073 35.5234 38.1023 35.2701L36.9775 35.292ZM37.1074 36.4258L35.9991 36.619C36.0069 36.6635 35.998 36.7032 35.9847 36.7285C35.9786 36.7401 35.9731 36.7459 35.9707 36.7481C35.9689 36.7497 35.9679 36.7504 35.9655 36.7513L36.3682 37.8018L36.7709 38.8522C37.8779 38.4278 38.3977 37.2764 38.2157 36.2326L37.1074 36.4258ZM36.3682 37.8018L35.9657 36.7512C31.302 38.538 26.6617 39.1717 22.4869 39.1553L22.4824 40.2803L22.478 41.4053C26.8839 41.4226 31.8065 40.7542 36.7706 38.8523L36.3682 37.8018ZM22.4824 40.2803L22.478 39.1553C18.3031 39.1717 13.6629 38.538 8.99916 36.7512L8.59668 37.8018L8.19419 38.8523C13.1583 40.7542 18.081 41.4226 22.4869 41.4053L22.4824 40.2803ZM8.59668 37.8018L8.99939 36.7513C8.99699 36.7504 8.99593 36.7497 8.99415 36.7481C8.99178 36.7459 8.98623 36.7401 8.98013 36.7285C8.96685 36.7032 8.95794 36.6635 8.96571 36.619L7.85742 36.4258L6.74914 36.2326C6.56715 37.2765 7.08695 38.4278 8.19396 38.8522L8.59668 37.8018ZM7.85742 36.4258L8.96571 36.619C9.03353 36.2299 9.10373 35.7439 9.11209 35.3139L7.9873 35.292L6.86252 35.2701C6.85759 35.5234 6.81189 35.8726 6.74913 36.2326L7.85742 36.4258ZM7.9873 35.292L9.11209 35.3137C9.12209 34.7972 9.0477 34.1895 8.98178 33.7512C8.91349 33.297 8.84271 32.9514 8.83928 32.9347L7.7373 33.1611L6.63533 33.3876C6.6344 33.3831 6.69668 33.686 6.7568 34.0857C6.81928 34.5013 6.86865 34.953 6.86251 35.2702L7.9873 35.292ZM7.7373 33.1611L8.45628 32.2959C4.60469 29.0955 2.25 24.6257 2.25 19.7139L1.125 19.7139L0 19.7139C4.76837e-06 25.3805 2.72223 30.4567 7.01833 34.0264L7.7373 33.1611ZM1.125 19.7139L2.25 19.7139C2.25001 10.2104 11.1566 2.25 22.4824 2.25V1.125V0C10.2174 0 9.89437e-06 8.68457 0 19.7139L1.125 19.7139Z" fill="white" mask="url(#path-1-outside-1_0_4)"/>
</g>
<g id="Vector">
<path d="M43.8398 19.7139C43.8398 25.0288 41.2771 29.8227 37.1684 33.2106C36.7544 33.552 36.3247 33.8791 35.8802 34.191C32.2163 36.763 27.556 38.3027 22.4824 38.3027C17.4088 38.3027 12.7486 36.763 9.08459 34.191C8.64024 33.8791 8.21045 33.552 7.79641 33.2106C3.68775 29.8227 1.125 25.0288 1.125 19.7139C1.125 9.44747 10.687 1.125 22.4824 1.125C24.5584 1.125 26.5651 1.38279 28.4628 1.86358C32.2564 2.82476 35.6139 4.6772 38.216 7.14311C41.7081 10.4524 43.8398 14.8664 43.8398 19.7139Z" fill="white"/>
<path d="M43.8398 19.7139C43.8398 25.0288 41.2771 29.8227 37.1684 33.2106C36.7544 33.552 36.3247 33.8791 35.8802 34.191C32.2163 36.763 27.556 38.3027 22.4824 38.3027C17.4088 38.3027 12.7486 36.763 9.08459 34.191C8.64024 33.8791 8.21045 33.552 7.79641 33.2106C3.68775 29.8227 1.125 25.0288 1.125 19.7139C1.125 9.44747 10.687 1.125 22.4824 1.125C24.5584 1.125 26.5651 1.38279 28.4628 1.86358C32.2564 2.82476 35.6139 4.6772 38.216 7.14311C41.7081 10.4524 43.8398 14.8664 43.8398 19.7139Z" fill="black" fill-opacity="0.16"/>
</g>
<g id="Vector_2">
<path d="M13.7979 7.63233C14.9453 7.70421 16.576 9.62856 17.248 10.5817C17.92 11.5349 13.516 12.3825 13.516 12.3825C13.3625 12.412 12.3636 7.54255 13.7979 7.63233Z" fill="white"/>
<path d="M13.7979 7.63233C14.9453 7.70421 16.576 9.62856 17.248 10.5817C17.92 11.5349 13.516 12.3825 13.516 12.3825C13.3625 12.412 12.3636 7.54255 13.7979 7.63233Z" fill="black" fill-opacity="0.32"/>
</g>
<g id="Vector_3">
<path d="M31.1003 7.63233C29.9528 7.70421 28.3221 9.62856 27.6502 10.5817C26.9782 11.5349 31.3822 12.3825 31.3822 12.3825C31.5357 12.412 32.5346 7.54255 31.1003 7.63233Z" fill="white"/>
<path d="M31.1003 7.63233C29.9528 7.70421 28.3221 9.62856 27.6502 10.5817C26.9782 11.5349 31.3822 12.3825 31.3822 12.3825C31.5357 12.412 32.5346 7.54255 31.1003 7.63233Z" fill="black" fill-opacity="0.32"/>
</g>
<path id="Vector_4" d="M23.9161 7.47498C23.7184 7.83094 23.2405 8.11768 23.0262 8.21656C23.3229 6.58508 20.5049 5.10192 21.2959 6.09069C21.9287 6.88172 21.0322 8.55136 20.5049 9.27375C20.5049 9.27375 17.588 9.72265 15.2095 10.6666C12.831 11.6106 10.5799 13.2127 10.5799 13.2127C8.13597 13.2621 3.20349 13.7593 3.02519 15.3521C2.80231 17.343 4.29597 19.0999 8.15217 18.1112C7.62817 18.9281 7.2098 19.7269 6.88526 20.5049C4.09878 27.1846 8.22935 32.3343 11.8161 34.327C11.8161 34.327 16.2532 36.7207 22.7296 36.7207C29.2061 36.7207 33.0623 34.327 33.0623 34.327C36.649 32.3343 40.7796 27.1846 37.9931 20.5049C37.6685 19.7269 37.2502 18.9281 36.7262 18.1112C40.5824 19.0999 42.0761 17.343 41.8532 15.3521C41.6748 13.7593 36.7424 13.2621 34.2984 13.2127C34.2984 13.2127 32.0807 11.5846 29.7021 10.6406C27.3236 9.69665 24.4068 9.24775 24.4068 9.24775C24.5063 8.32602 24.0692 7.19951 23.9161 7.47498Z" fill="white"/>
<path id="Vector_5" d="M19.4683 32.6629C19.4683 32.6629 21.1497 31.7875 22.4821 31.3813M22.4821 31.3813C23.8146 31.7875 25.4996 32.6629 25.4996 32.6629M22.4821 31.3813V29.7993" stroke="#B5B5B5" stroke-width="0.711914" stroke-linecap="round"/>
<g id="Ellipse 77">
<path d="M36.9672 25.899C36.9672 26.5625 36.4293 27.1004 35.7658 27.1004C35.1023 27.1004 34.5645 26.5625 34.5645 25.899C34.5645 25.2355 35.1023 22.8556 35.7658 22.8556C36.4293 22.8556 36.9672 25.2355 36.9672 25.899Z" fill="white"/>
<path d="M36.9672 25.899C36.9672 26.5625 36.4293 27.1004 35.7658 27.1004C35.1023 27.1004 34.5645 26.5625 34.5645 25.899C34.5645 25.2355 35.1023 22.8556 35.7658 22.8556C36.4293 22.8556 36.9672 25.2355 36.9672 25.899Z" fill="black" fill-opacity="0.16"/>
</g>
<path id="Vector_6" d="M19.6958 29.651C18.4598 28.4645 19.0366 27.1956 19.2014 26.833C19.2014 26.833 20.2577 25.6437 22.5319 25.6465C24.806 25.6493 25.8443 26.833 25.8443 26.833C26.0091 27.1956 26.5858 28.4645 25.3499 29.651C25.3499 29.651 23.6432 30.0455 22.5319 30.0465C21.4206 30.0475 19.6958 29.651 19.6958 29.651Z" fill="#C2C2C2"/>
<path id="Vector_7" d="M19.9116 27.0308C20.1236 27.1093 20.5137 27.4169 20.378 28.0195" stroke="black" stroke-opacity="0.16" stroke-width="0.355957" stroke-linecap="round"/>
<path id="Vector_8" d="M25.0532 27.0308C24.8413 27.1093 24.4512 27.4169 24.5868 28.0195" stroke="black" stroke-opacity="0.16" stroke-width="0.355957" stroke-linecap="round"/>
<path id="Vector_9" d="M8.15217 18.1118C4.29597 19.1005 2.80231 17.3436 3.02519 15.3526C3.20349 13.7599 8.13597 13.2627 10.5799 13.2133C10.9724 12.9414 11.1983 12.7945 11.606 12.538C16.8856 15.3065 13.4352 23.274 6.88526 20.5055C7.2098 19.7275 7.62817 18.9287 8.15217 18.1118Z" fill="#B5B5B5"/>
<path id="Vector_10" d="M36.7224 18.1127C40.5786 19.1015 42.0722 17.3446 41.8494 15.3536C41.6711 13.7609 36.7427 13.2637 34.2987 13.2143C33.9161 12.935 33.6844 12.7838 33.2686 12.5182C27.989 15.2867 31.4438 23.275 37.9938 20.5065C37.6692 19.7285 37.2464 18.9297 36.7224 18.1127Z" fill="#B5B5B5"/>
<path id="Vector_11" d="M29.9724 27.0159C30.7915 27.0159 31.4555 26.3519 31.4555 25.5328C31.4555 24.7137 30.7915 24.0496 29.9724 24.0496C29.1532 24.0496 28.4892 24.7137 28.4892 25.5328C28.4892 26.3519 29.1532 27.0159 29.9724 27.0159Z" fill="#B5B5B5"/>
<path id="Vector_12" d="M14.8689 27.0308C15.688 27.0308 16.3521 26.3667 16.3521 25.5476C16.3521 24.7285 15.688 24.0645 14.8689 24.0645C14.0498 24.0645 13.3857 24.7285 13.3857 25.5476C13.3857 26.3667 14.0498 27.0308 14.8689 27.0308Z" fill="#B5B5B5"/>
<path id="Vector_13" d="M36.978 35.2923C36.9617 34.4545 37.2279 33.1611 37.2279 33.1611C31.7705 34.9298 26.8343 35.5798 22.4824 35.5899C18.1306 35.5798 13.1943 34.9298 7.73691 33.1611C7.73691 33.1611 8.00315 34.4545 7.98686 35.2923C7.98022 35.634 7.92311 36.0515 7.85781 36.4261C7.75716 37.0034 8.04984 37.5918 8.59708 37.8014C13.411 39.6457 18.1921 40.2969 22.4824 40.28C26.7728 40.2969 31.5539 39.6457 36.3678 37.8014C36.915 37.5918 37.2077 37.0034 37.1071 36.4261C37.0417 36.0515 36.9846 35.634 36.978 35.2923Z" fill="#B5B5B5"/>
<g id="Ellipse 69">
<path d="M38.9764 11.6339C38.346 12.4417 37.0009 10.2128 34.5537 8.30295C32.1064 6.39312 29.7747 5.74252 30.1773 4.93869C30.4927 4.30892 33.1576 5.05521 35.6049 6.96504C38.0522 8.87487 39.4289 11.054 38.9764 11.6339Z" fill="white"/>
<path d="M38.9764 11.6339C38.346 12.4417 37.0009 10.2128 34.5537 8.30295C32.1064 6.39312 29.7747 5.74252 30.1773 4.93869C30.4927 4.30892 33.1576 5.05521 35.6049 6.96504C38.0522 8.87487 39.4289 11.054 38.9764 11.6339Z" fill="black" fill-opacity="0.08"/>
</g>
<path id="Line 75" d="M15.7125 21.8002C15.7125 21.8002 15.3631 22.2677 14.6512 22.6253C13.9393 22.9828 13.076 23.1018 13.076 23.1018" stroke="#B5B5B5" stroke-width="0.711914" stroke-linecap="round"/>
<path id="Line 76" d="M28.9144 21.8002C28.9144 21.8002 29.2637 22.2677 29.9756 22.6253C30.6875 22.9828 31.5508 23.1018 31.5508 23.1018" stroke="#B5B5B5" stroke-width="0.711914" stroke-linecap="round"/>
</g>
</svg>
